<svg xmlns="http://www.w3.org/2000/svg" xmlns:xlink="http://www.w3.org/1999/xlink" width="500" zoomAndPan="magnify" viewBox="0 0 375 374.999991" height="500" preserveAspectRatio="xMidYMid meet" version="1.0"><defs><g/><clipPath id="ba6094bffc"><path d="M 113.28125 62.605469 L 324 62.605469 L 324 313.855469 L 113.28125 313.855469 Z M 113.28125 62.605469 " clip-rule="nonzero"/></clipPath><clipPath id="2af4cda4c2"><path d="M 113.28125 158 L 311 158 L 311 230 L 113.28125 230 Z M 113.28125 158 " clip-rule="nonzero"/></clipPath></defs><g clip-path="url(#ba6094bffc)"><path fill="#709cec" d="M 149.378906 123.636719 C 148.355469 123.9375 147.308594 124.199219 146.246094 124.414062 C 147.308594 124.207031 148.355469 123.945312 149.378906 123.636719 Z M 231.398438 62.6875 C 192.078125 62.6875 152.75 63.042969 113.425781 63.042969 L 113.425781 115.078125 C 113.714844 115.425781 114.011719 115.769531 114.3125 116.105469 C 114.320312 116.117188 114.328125 116.121094 114.335938 116.125 C 120.109375 122.484375 128.914062 126.800781 142.339844 124.394531 C 143.265625 124.226562 144.203125 124.035156 145.175781 123.804688 C 147.945312 123.144531 150.90625 122.214844 154.066406 120.964844 C 154.070312 120.957031 154.070312 120.957031 154.074219 120.957031 C 155.5625 120.378906 157.085938 119.722656 158.664062 118.992188 C 158.664062 118.992188 142.753906 77.472656 143.488281 76.386719 L 146.609375 71.761719 L 153.375 78.539062 C 155.980469 81.148438 158.910156 83.414062 162.089844 85.28125 L 173.566406 92.015625 L 186.117188 93.878906 L 201.234375 96.335938 L 213.300781 98.304688 L 235.378906 103.65625 L 249.554688 109.707031 L 258.851562 115.292969 L 266.984375 125.074219 L 269.089844 128.960938 L 271.398438 133.222656 L 305.398438 146.503906 L 307.167969 147.195312 L 317.875 151.378906 L 311.800781 160.316406 C 311.800781 160.316406 274.242188 187.464844 270.871094 187.464844 L 236.542969 187.464844 L 223.527344 188.636719 L 202.234375 190.964844 C 200.785156 191.121094 199.347656 191.382812 197.929688 191.75 L 183.789062 195.394531 L 157.761719 203.3125 L 141.03125 210.996094 L 135.296875 211.058594 L 136.382812 210.292969 L 137.589844 209.617188 C 131.457031 212.804688 126.382812 216.359375 122.1875 220.066406 C 118.695312 223.152344 115.808594 226.347656 113.421875 229.527344 L 113.421875 313.769531 L 160.609375 313.769531 L 160.609375 239.984375 L 231.394531 239.984375 C 354.019531 239.984375 353.664062 62.6875 231.398438 62.6875 Z M 143.003906 124.910156 L 142.410156 125.417969 L 143.003906 124.910156 C 144.101562 124.796875 145.179688 124.628906 146.246094 124.414062 C 145.179688 124.628906 144.101562 124.796875 143.003906 124.910156 Z M 152.382812 122.589844 C 151.730469 122.851562 151.070312 123.097656 150.394531 123.316406 C 151.070312 123.09375 151.730469 122.851562 152.382812 122.589844 Z M 152.382812 122.589844 " fill-opacity="1" fill-rule="nonzero"/></g><path fill="#fe911c" d="M 306.726562 150.832031 C 306.726562 149.699219 306.785156 148.582031 306.898438 147.484375 C 306.933594 147.105469 306.980469 146.734375 307.035156 146.359375 L 272.550781 132.882812 C 272.550781 132.882812 270.8125 99.265625 173.320312 91.085938 C 157.417969 84.714844 145.972656 70.542969 145.972656 70.542969 C 145.972656 70.542969 122.78125 97.589844 158.382812 118.632812 C 158.324219 118.777344 151.832031 121.9375 142.597656 124.175781 L 142.058594 124.675781 L 141.714844 124.96875 L 141.707031 124.96875 L 133.011719 132.410156 L 162.472656 131.234375 C 159.117188 132.640625 155.890625 134.320312 152.824219 136.253906 C 149.757812 138.191406 146.851562 140.386719 144.136719 142.808594 L 143.613281 143.273438 C 143.613281 143.273438 208.800781 122.496094 268.171875 155.136719 C 270.148438 155.570312 275.8125 157.828125 275.8125 157.828125 C 278.65625 158.832031 281.570312 159.644531 284.523438 160.261719 C 286.8125 160.734375 289.117188 161.097656 291.441406 161.335938 C 293.757812 161.574219 296.09375 161.691406 298.429688 161.691406 L 304.835938 161.691406 L 308.390625 161.117188 C 307.3125 157.875 306.726562 154.421875 306.726562 150.832031 Z M 306.726562 150.832031 " fill-opacity="1" fill-rule="nonzero"/><path fill="#4d4d4d" d="M 319.6875 151.300781 L 312.144531 162.398438 L 310.046875 165.15625 L 291.632812 182.941406 C 291.125 183.21875 290.605469 183.480469 290.085938 183.738281 C 287.53125 184.976562 284.863281 185.949219 282.128906 186.640625 C 278.835938 187.46875 275.429688 187.898438 272.007812 187.898438 L 237.1875 187.898438 L 223.992188 189.082031 L 202.398438 191.441406 C 200.925781 191.601562 199.46875 191.867188 198.035156 192.234375 L 183.6875 195.925781 L 157.289062 203.960938 L 140.320312 211.753906 L 135.605469 211.042969 L 136.832031 210.355469 C 136.839844 210.351562 136.84375 210.351562 136.84375 210.347656 L 141 208.023438 C 148.390625 203.898438 156.085938 200.332031 164.007812 197.355469 L 174.730469 193.328125 L 198.570312 186.796875 C 199.332031 186.585938 200.105469 186.414062 200.882812 186.285156 L 220.269531 182.976562 C 221.332031 182.800781 222.410156 182.683594 223.492188 182.648438 L 263.351562 181.285156 L 286.082031 181.285156 C 281.628906 178.222656 277.769531 174.363281 274.707031 169.914062 L 276.925781 170.359375 C 277.855469 170.542969 278.804688 170.636719 279.742188 170.636719 C 280.214844 170.636719 280.683594 170.613281 281.152344 170.566406 C 281.457031 170.535156 281.757812 170.503906 282.054688 170.472656 C 282.367188 170.4375 282.683594 170.40625 282.996094 170.363281 C 283.21875 170.335938 283.445312 170.3125 283.664062 170.28125 C 283.988281 170.234375 284.316406 170.191406 284.640625 170.144531 C 284.828125 170.117188 285.015625 170.09375 285.203125 170.0625 C 285.355469 170.039062 285.507812 170.011719 285.664062 169.992188 C 285.871094 169.960938 286.074219 169.929688 286.285156 169.894531 C 286.316406 169.886719 286.347656 169.882812 286.378906 169.878906 C 286.539062 169.851562 286.695312 169.824219 286.859375 169.792969 C 286.890625 169.789062 286.921875 169.785156 286.953125 169.777344 C 287.121094 169.753906 287.285156 169.722656 287.457031 169.6875 C 287.664062 169.652344 287.859375 169.621094 288.0625 169.578125 C 288.230469 169.546875 288.398438 169.515625 288.570312 169.484375 C 288.789062 169.449219 289.003906 169.402344 289.222656 169.359375 C 289.242188 169.355469 289.265625 169.347656 289.285156 169.34375 C 289.5625 169.285156 289.832031 169.234375 290.109375 169.175781 C 290.132812 169.171875 290.15625 169.167969 290.183594 169.160156 C 290.464844 169.097656 290.746094 169.039062 291.023438 168.976562 C 291.28125 168.921875 291.523438 168.867188 291.777344 168.8125 C 291.886719 168.785156 292 168.757812 292.109375 168.730469 C 292.320312 168.679688 292.53125 168.632812 292.742188 168.582031 C 292.773438 168.570312 292.804688 168.566406 292.835938 168.558594 C 293.117188 168.492188 293.394531 168.421875 293.675781 168.351562 C 293.96875 168.277344 294.253906 168.203125 294.546875 168.125 C 294.550781 168.121094 294.558594 168.121094 294.558594 168.121094 C 294.851562 168.042969 295.136719 167.964844 295.429688 167.886719 C 295.722656 167.800781 296.007812 167.726562 296.300781 167.632812 C 296.503906 167.578125 296.707031 167.519531 296.90625 167.457031 C 296.933594 167.449219 296.960938 167.441406 296.980469 167.433594 C 297.183594 167.378906 297.382812 167.316406 297.582031 167.253906 C 298.179688 167.070312 298.777344 166.875 299.371094 166.675781 C 299.574219 166.613281 299.777344 166.546875 299.980469 166.472656 C 300.304688 166.363281 300.628906 166.253906 300.953125 166.136719 C 301.015625 166.117188 301.074219 166.097656 301.136719 166.074219 C 301.308594 166.011719 301.472656 165.957031 301.640625 165.890625 C 301.914062 165.792969 302.183594 165.695312 302.460938 165.589844 C 302.734375 165.488281 303.003906 165.386719 303.28125 165.28125 C 303.550781 165.175781 303.828125 165.066406 304.101562 164.957031 C 304.425781 164.832031 304.742188 164.699219 305.0625 164.570312 C 305.113281 164.546875 305.160156 164.53125 305.207031 164.507812 C 305.515625 164.382812 305.824219 164.25 306.132812 164.121094 C 306.460938 163.976562 306.789062 163.835938 307.117188 163.6875 C 307.128906 163.6875 307.136719 163.679688 307.144531 163.675781 C 307.476562 163.527344 307.804688 163.382812 308.136719 163.226562 C 308.433594 163.089844 308.734375 162.949219 309.027344 162.808594 C 309.023438 162.792969 309.011719 162.769531 309.007812 162.75 L 308.402344 161.089844 C 307.320312 157.847656 306.738281 154.398438 306.738281 150.804688 C 306.738281 149.675781 306.792969 148.554688 306.910156 147.457031 C 306.945312 147.082031 306.992188 146.710938 307.042969 146.332031 Z M 319.6875 151.300781 " fill-opacity="1" fill-rule="nonzero"/><g clip-path="url(#2af4cda4c2)"><path fill="#fe911c" d="M 281.308594 187.308594 C 244.984375 189.734375 160.027344 189.699219 113.421875 229.828125 C 113.285156 228.269531 113.5625 214.273438 113.65625 197 C 114.242188 196.617188 114.820312 196.242188 115.382812 195.871094 C 120.484375 192.546875 124.804688 189.859375 127.140625 188.6875 C 137.53125 182.8125 150.429688 177.140625 160 178.339844 L 153.871094 176.421875 L 123.703125 184.480469 L 131.394531 179.035156 C 136.03125 175.75 140.90625 172.84375 145.980469 170.328125 C 151.054688 167.8125 156.320312 165.695312 161.738281 163.992188 C 169.359375 161.597656 177.214844 160.050781 185.175781 159.375 L 189.800781 158.984375 C 195.386719 158.507812 201 158.464844 206.59375 158.851562 L 222 159.921875 L 238.734375 162.753906 L 259.003906 166.765625 L 274.722656 169.914062 C 291.164062 170.96875 300.546875 163.851562 308.109375 160.457031 C 310.789062 163.140625 308.109375 163.140625 310.277344 164.839844 C 310.339844 164.910156 294.703125 184.625 281.308594 187.308594 Z M 281.308594 187.308594 " fill-opacity="1" fill-rule="nonzero"/></g><path fill="#fe911c" d="M 310.265625 164.847656 C 310.339844 164.910156 294.703125 184.625 281.308594 187.308594 " fill-opacity="1" fill-rule="nonzero"/><g fill="#ffffff" fill-opacity="1"><g transform="translate(97.42208, 321.55782)"><g><path d="M -23.546875 -29.484375 C -21.253906 -29.484375 -19.046875 -28.664062 -16.921875 -27.03125 C -15.828125 -26.15625 -14.929688 -24.851562 -14.234375 -23.125 C -13.546875 -21.40625 -13.203125 -19.367188 -13.203125 -17.015625 L -13.203125 -11.890625 L 0 -11.890625 L 0 -3.625 L -33.9375 -3.625 L -33.9375 -17.015625 C -33.9375 -20.953125 -32.921875 -24.015625 -30.890625 -26.203125 C -28.859375 -28.390625 -26.410156 -29.484375 -23.546875 -29.484375 Z M -19.484375 -11.890625 L -19.484375 -17.015625 C -19.484375 -18.273438 -19.851562 -19.265625 -20.59375 -19.984375 C -21.332031 -20.710938 -22.304688 -21.078125 -23.515625 -21.078125 C -24.722656 -21.078125 -25.710938 -20.707031 -26.484375 -19.96875 C -27.265625 -19.226562 -27.65625 -18.242188 -27.65625 -17.015625 L -27.65625 -11.890625 Z M -19.484375 -11.890625 "/></g></g></g><g fill="#ffffff" fill-opacity="1"><g transform="translate(97.42208, 275.583959)"><g><path d="M -9.953125 -25.546875 C -11.734375 -27.171875 -14.101562 -27.984375 -17.0625 -27.984375 C -20.03125 -27.984375 -22.398438 -27.171875 -24.171875 -25.546875 C -25.941406 -23.921875 -26.828125 -21.742188 -26.828125 -19.015625 C -26.828125 -16.296875 -25.941406 -14.125 -24.171875 -12.5 C -22.398438 -10.875 -20.03125 -10.0625 -17.0625 -10.0625 C -14.101562 -10.0625 -11.734375 -10.875 -9.953125 -12.5 C -8.179688 -14.125 -7.296875 -16.296875 -7.296875 -19.015625 C -7.296875 -21.742188 -8.179688 -23.921875 -9.953125 -25.546875 Z M -4.59375 -6.6875 C -7.882812 -3.320312 -12.039062 -1.640625 -17.0625 -1.640625 C -22.09375 -1.640625 -26.242188 -3.320312 -29.515625 -6.6875 C -32.785156 -10.0625 -34.421875 -14.1875 -34.421875 -19.0625 C -34.421875 -23.945312 -32.785156 -28.054688 -29.515625 -31.390625 C -26.242188 -34.734375 -22.09375 -36.40625 -17.0625 -36.40625 C -12.039062 -36.40625 -7.882812 -34.726562 -4.59375 -31.375 C -1.300781 -28.019531 0.34375 -23.910156 0.34375 -19.046875 C 0.34375 -14.179688 -1.300781 -10.0625 -4.59375 -6.6875 Z M -4.59375 -6.6875 "/></g></g></g><g fill="#ffffff" fill-opacity="1"><g transform="translate(97.42208, 222.359122)"><g><path d="M -6.28125 -11.890625 L -6.28125 -15.5625 C -6.28125 -18.71875 -7.242188 -21.195312 -9.171875 -23 C -11.109375 -24.8125 -13.703125 -25.71875 -16.953125 -25.71875 C -20.210938 -25.71875 -22.8125 -24.8125 -24.75 -23 C -26.6875 -21.195312 -27.65625 -18.71875 -27.65625 -15.5625 L -27.65625 -11.890625 Z M -33.9375 -15.5625 C -33.9375 -20.976562 -32.363281 -25.425781 -29.21875 -28.90625 C -26.082031 -32.382812 -22.003906 -34.125 -16.984375 -34.125 C -11.972656 -34.125 -7.890625 -32.382812 -4.734375 -28.90625 C -1.578125 -25.425781 0 -20.976562 0 -15.5625 L 0 -3.625 L -33.9375 -3.625 Z M -33.9375 -15.5625 "/></g></g></g><g fill="#ffffff" fill-opacity="1"><g transform="translate(97.42208, 171.502944)"><g><path d="M -27.890625 -15.125 C -27.890625 -14.09375 -27.613281 -13.25 -27.0625 -12.59375 C -26.519531 -11.9375 -25.734375 -11.609375 -24.703125 -11.609375 C -23.671875 -11.609375 -22.835938 -11.910156 -22.203125 -12.515625 C -21.578125 -13.128906 -21.09375 -13.925781 -20.75 -14.90625 C -20.414062 -15.894531 -20.097656 -16.992188 -19.796875 -18.203125 C -19.492188 -19.410156 -19.125 -20.609375 -18.6875 -21.796875 C -18.25 -22.992188 -17.707031 -24.082031 -17.0625 -25.0625 C -16.414062 -26.050781 -15.503906 -26.847656 -14.328125 -27.453125 C -13.148438 -28.066406 -11.742188 -28.375 -10.109375 -28.375 C -7.234375 -28.375 -4.769531 -27.207031 -2.71875 -24.875 C -0.675781 -22.539062 0.34375 -19.460938 0.34375 -15.640625 C 0.34375 -11.816406 -0.570312 -8.738281 -2.40625 -6.40625 C -4.25 -4.070312 -6.863281 -2.90625 -10.25 -2.90625 L -10.25 -11.703125 C -7.539062 -11.921875 -6.1875 -13.304688 -6.1875 -15.859375 C -6.1875 -17.046875 -6.5 -17.976562 -7.125 -18.65625 C -7.757812 -19.332031 -8.554688 -19.671875 -9.515625 -19.671875 C -10.484375 -19.671875 -11.273438 -19.363281 -11.890625 -18.75 C -12.503906 -18.144531 -12.988281 -17.347656 -13.34375 -16.359375 C -13.695312 -15.378906 -14.023438 -14.285156 -14.328125 -13.078125 C -14.640625 -11.867188 -15.019531 -10.664062 -15.46875 -9.46875 C -15.914062 -8.28125 -16.453125 -7.191406 -17.078125 -6.203125 C -17.710938 -5.222656 -18.617188 -4.425781 -19.796875 -3.8125 C -20.972656 -3.207031 -22.367188 -2.90625 -23.984375 -2.90625 C -27.140625 -2.90625 -29.664062 -4.078125 -31.5625 -6.421875 C -33.46875 -8.773438 -34.421875 -11.78125 -34.421875 -15.4375 C -34.421875 -19.101562 -33.585938 -22.0625 -31.921875 -24.3125 C -30.265625 -26.570312 -27.648438 -27.75 -24.078125 -27.84375 L -24.078125 -18.859375 C -25.296875 -18.722656 -26.234375 -18.320312 -26.890625 -17.65625 C -27.554688 -17 -27.890625 -16.15625 -27.890625 -15.125 Z M -27.890625 -15.125 "/></g></g></g><g fill="#ffffff" fill-opacity="1"><g transform="translate(97.42208, 125.094018)"><g><path d="M -34.03125 -24.171875 L -27.75 -24.171875 L -27.75 -11.890625 L -20.453125 -11.890625 L -20.453125 -22.71875 L -14.171875 -22.71875 L -14.171875 -11.890625 L -6.28125 -11.890625 L -6.28125 -24.171875 L 0 -24.171875 L 0 -3.625 L -34.03125 -3.625 Z M -34.03125 -24.171875 "/></g></g></g><g fill="#ffffff" fill-opacity="1"><g transform="translate(97.42208, 82.310582)"><g><path d="M -34.03125 -24.171875 L -27.75 -24.171875 L -27.75 -11.890625 L -20.453125 -11.890625 L -20.453125 -22.71875 L -14.171875 -22.71875 L -14.171875 -11.890625 L -6.28125 -11.890625 L -6.28125 -24.171875 L 0 -24.171875 L 0 -3.625 L -34.03125 -3.625 Z M -34.03125 -24.171875 "/></g></g></g></svg>